# xmcd
#
# Track frame offsets:
#	150
#	8453
#	18829
#	28844
#	37945
#	48201
#	59642
#	70094
#	81219
#	92110
#	102680
#	114579
#
# Disc length: 1643 seconds
#
# Revision: 0
# Processed by: cddbd v1.5.1PL0 Copyright (c) Steve Scherf et al.
# Submitted via: dBpowerAMP V4.0
#
DISCID=9206690c
DTITLE=Conway Twitty - Lonely Boy Blue
DYEAR=1900
DGENRE=
TTITLE0=Just Because
TTITLE1=Heartbreak Hotel
TTITLE2=Easy To Fall In Love
TTITLE3=Huggin And A Kissin
TTITLE4=My Adobe Hacienda
TTITLE5=Can't We Go Steady
TTITLE6=Lonely Boy Blue
TTITLE7=Sorry
TTITLE8=Moon
TTITLE9=Eternal Tears
TTITLE10=Trouble In Mind
TTITLE11=Pretty Eyed Lady
EXTD=
EXTT0=
EXTT1=
EXTT2=
EXTT3=
EXTT4=
EXTT5=
EXTT6=
EXTT7=
EXTT8=
EXTT9=
EXTT10=
EXTT11=
PLAYORDER=
